<svg width="20" height="20" viewBox="0 0 20 20" fill="none" xmlns="http://www.w3.org/2000/svg">
<mask id="mask0_139_526" style="mask-type:alpha" maskUnits="userSpaceOnUse" x="0" y="0" width="20" height="20">
<rect width="20" height="20" fill="#D9D9D9"/>
</mask>
<g mask="url(#mask0_139_526)">
<path d="M3.33341 16.6667C2.87508 16.6667 2.48286 16.5037 2.15675 16.1775C1.83008 15.8509 1.66675 15.4584 1.66675 15V5.00004C1.66675 4.54171 1.83008 4.14948 2.15675 3.82337C2.48286 3.49671 2.87508 3.33337 3.33341 3.33337H16.6667C17.1251 3.33337 17.5176 3.49671 17.8442 3.82337C18.1704 4.14948 18.3334 4.54171 18.3334 5.00004V15C18.3334 15.4584 18.1704 15.8509 17.8442 16.1775C17.5176 16.5037 17.1251 16.6667 16.6667 16.6667H3.33341ZM10.0001 10.6875C10.0695 10.6875 10.1423 10.677 10.2184 10.6559C10.2951 10.6353 10.3681 10.6042 10.4376 10.5625L16.3334 6.87504C16.4445 6.8056 16.5279 6.71893 16.5834 6.61504C16.639 6.5106 16.6667 6.39587 16.6667 6.27087C16.6667 5.9931 16.5487 5.78476 16.3126 5.64587C16.0765 5.50699 15.8334 5.51393 15.5834 5.66671L10.0001 9.16671L4.41675 5.66671C4.16675 5.51393 3.92369 5.51032 3.68758 5.65587C3.45147 5.80199 3.33341 6.00699 3.33341 6.27087C3.33341 6.40976 3.36119 6.53115 3.41675 6.63504C3.4723 6.73949 3.55564 6.81948 3.66675 6.87504L9.56258 10.5625C9.63203 10.6042 9.70508 10.6353 9.78175 10.6559C9.85786 10.677 9.93064 10.6875 10.0001 10.6875Z" fill="#616161"/>
</g>
</svg>
